<svg xmlns="http://www.w3.org/2000/svg" xmlns:xlink="http://www.w3.org/1999/xlink" contentStyleType="text/css" data-diagram-type="SEQUENCE" height="712px" preserveAspectRatio="none" style="width:828px;height:712px;background:#FFFFFF;" version="1.1" viewBox="0 0 828 712" width="828px" zoomAndPan="magnify"><defs/><g><g><title>Cita</title><rect fill="#FFFFFF" height="44.2656" style="stroke:#181818;stroke-width:1;" width="10" x="668.8716" y="394.2344"/></g><g><title>Notificacion</title><rect fill="#FFFFFF" height="29.1328" style="stroke:#181818;stroke-width:1;" width="10" x="748.0068" y="525.8984"/></g><rect fill="none" height="428.6016" style="stroke:#000000;stroke-width:1.5;" width="811.2754" x="10" y="185.6953"/><rect fill="none" height="295.2656" style="stroke:#000000;stroke-width:1.5;" width="791.2754" x="20" y="312.0313"/><g><title>Usuario</title><rect fill="#000000" fill-opacity="0.00000" height="550" width="8" x="55.6021" y="81.2969"/><line style="stroke:#181818;stroke-width:0.5;stroke-dasharray:5,5;" x1="59" x2="59" y1="81.2969" y2="631.2969"/></g><g><title>GestorDeCitas</title><rect fill="#000000" fill-opacity="0.00000" height="550" width="8" x="319.4482" y="81.2969"/><line style="stroke:#181818;stroke-width:0.5;stroke-dasharray:5,5;" x1="322.9546" x2="322.9546" y1="81.2969" y2="631.2969"/></g><g><title>Validador</title><rect fill="#000000" fill-opacity="0.00000" height="550" width="8" x="521.2842" y="81.2969"/><line style="stroke:#181818;stroke-width:0.5;stroke-dasharray:5,5;" x1="524.9795" x2="524.9795" y1="81.2969" y2="631.2969"/></g><g><title>Agenda</title><rect fill="#000000" fill-opacity="0.00000" height="550" width="8" x="605.2969" y="81.2969"/><line style="stroke:#181818;stroke-width:0.5;stroke-dasharray:5,5;" x1="608.5889" x2="608.5889" y1="81.2969" y2="631.2969"/></g><g><title>Cita</title><rect fill="#000000" fill-opacity="0.00000" height="550" width="8" x="669.8716" y="81.2969"/><line style="stroke:#181818;stroke-width:0.5;stroke-dasharray:5,5;" x1="673.0049" x2="673.0049" y1="81.2969" y2="631.2969"/></g><g><title>Notificacion</title><rect fill="#000000" fill-opacity="0.00000" height="550" width="8" x="749.0068" y="81.2969"/><line style="stroke:#181818;stroke-width:0.5;stroke-dasharray:5,5;" x1="752.7383" x2="752.7383" y1="81.2969" y2="631.2969"/></g><g class="participant participant-head" data-participant="Usuario"><text fill="#000000" font-family="sans-serif" font-size="14" lengthAdjust="spacing" textLength="53.2041" x="30" y="77.9951">Usuario</text><ellipse cx="59.6021" cy="13.5" fill="#E2E2F0" rx="8" ry="8" style="stroke:#181818;stroke-width:0.5;"/><path d="M59.6021,21.5 L59.6021,48.5 M46.6021,29.5 L72.6021,29.5 M59.6021,48.5 L46.6021,63.5 M59.6021,48.5 L72.6021,63.5" fill="none" style="stroke:#181818;stroke-width:0.5;"/></g><g class="participant participant-tail" data-participant="Usuario"><text fill="#000000" font-family="sans-serif" font-size="14" lengthAdjust="spacing" textLength="53.2041" x="30" y="643.292">Usuario</text><ellipse cx="59.6021" cy="655.0938" fill="#E2E2F0" rx="8" ry="8" style="stroke:#181818;stroke-width:0.5;"/><path d="M59.6021,663.0938 L59.6021,690.0938 M46.6021,671.0938 L72.6021,671.0938 M59.6021,690.0938 L46.6021,705.0938 M59.6021,690.0938 L72.6021,705.0938" fill="none" style="stroke:#181818;stroke-width:0.5;"/></g><g class="participant participant-head" data-participant="GC"><rect fill="#E2E2F0" height="30.2969" rx="2.5" ry="2.5" style="stroke:#181818;stroke-width:0.5;" width="114.9873" x="265.9546" y="50"/><text fill="#000000" font-family="sans-serif" font-size="14" lengthAdjust="spacing" textLength="100.9873" x="272.9546" y="69.9951">GestorDeCitas</text></g><g class="participant participant-tail" data-participant="GC"><rect fill="#E2E2F0" height="30.2969" rx="2.5" ry="2.5" style="stroke:#181818;stroke-width:0.5;" width="114.9873" x="265.9546" y="630.2969"/><text fill="#000000" font-family="sans-serif" font-size="14" lengthAdjust="spacing" textLength="100.9873" x="272.9546" y="650.292">GestorDeCitas</text></g><g class="participant participant-head" data-participant="Validador"><rect fill="#E2E2F0" height="30.2969" rx="2.5" ry="2.5" style="stroke:#181818;stroke-width:0.5;" width="80.6094" x="484.9795" y="50"/><text fill="#000000" font-family="sans-serif" font-size="14" lengthAdjust="spacing" textLength="66.6094" x="491.9795" y="69.9951">Validador</text></g><g class="participant participant-tail" data-participant="Validador"><rect fill="#E2E2F0" height="30.2969" rx="2.5" ry="2.5" style="stroke:#181818;stroke-width:0.5;" width="80.6094" x="484.9795" y="630.2969"/><text fill="#000000" font-family="sans-serif" font-size="14" lengthAdjust="spacing" textLength="66.6094" x="491.9795" y="650.292">Validador</text></g><g class="participant participant-head" data-participant="Agenda"><rect fill="#E2E2F0" height="30.2969" rx="2.5" ry="2.5" style="stroke:#181818;stroke-width:0.5;" width="67.416" x="575.5889" y="50"/><text fill="#000000" font-family="sans-serif" font-size="14" lengthAdjust="spacing" textLength="53.416" x="582.5889" y="69.9951">Agenda</text></g><g class="participant participant-tail" data-participant="Agenda"><rect fill="#E2E2F0" height="30.2969" rx="2.5" ry="2.5" style="stroke:#181818;stroke-width:0.5;" width="67.416" x="575.5889" y="630.2969"/><text fill="#000000" font-family="sans-serif" font-size="14" lengthAdjust="spacing" textLength="53.416" x="582.5889" y="650.292">Agenda</text></g><g class="participant participant-head" data-participant="Cita"><rect fill="#E2E2F0" height="30.2969" rx="2.5" ry="2.5" style="stroke:#181818;stroke-width:0.5;" width="41.7334" x="653.0049" y="50"/><text fill="#000000" font-family="sans-serif" font-size="14" lengthAdjust="spacing" textLength="27.7334" x="660.0049" y="69.9951">Cita</text></g><g class="participant participant-tail" data-participant="Cita"><rect fill="#E2E2F0" height="30.2969" rx="2.5" ry="2.5" style="stroke:#181818;stroke-width:0.5;" width="41.7334" x="653.0049" y="630.2969"/><text fill="#000000" font-family="sans-serif" font-size="14" lengthAdjust="spacing" textLength="27.7334" x="660.0049" y="650.292">Cita</text></g><g class="participant participant-head" data-participant="Notificacion"><rect fill="#E2E2F0" height="30.2969" rx="2.5" ry="2.5" style="stroke:#181818;stroke-width:0.5;" width="96.5371" x="704.7383" y="50"/><text fill="#000000" font-family="sans-serif" font-size="14" lengthAdjust="spacing" textLength="82.5371" x="711.7383" y="69.9951">Notificacion</text></g><g class="participant participant-tail" data-participant="Notificacion"><rect fill="#E2E2F0" height="30.2969" rx="2.5" ry="2.5" style="stroke:#181818;stroke-width:0.5;" width="96.5371" x="704.7383" y="630.2969"/><text fill="#000000" font-family="sans-serif" font-size="14" lengthAdjust="spacing" textLength="82.5371" x="711.7383" y="650.292">Notificacion</text></g><g><title>Cita</title><rect fill="#FFFFFF" height="44.2656" style="stroke:#181818;stroke-width:1;" width="10" x="668.8716" y="394.2344"/></g><g><title>Notificacion</title><rect fill="#FFFFFF" height="29.1328" style="stroke:#181818;stroke-width:1;" width="10" x="748.0068" y="525.8984"/></g><g class="message" data-participant-1="Usuario" data-participant-2="GC"><polygon fill="#181818" points="311.4482,108.4297,321.4482,112.4297,311.4482,116.4297,315.4482,112.4297" style="stroke:#181818;stroke-width:1;"/><line style="stroke:#181818;stroke-width:1;" x1="59.6021" x2="317.4482" y1="112.4297" y2="112.4297"/><text fill="#000000" font-family="sans-serif" font-size="13" lengthAdjust="spacing" textLength="239.8462" x="66.6021" y="107.3638">crearSolicitud(datosUsuario, horario)</text></g><g class="message" data-participant-1="GC" data-participant-2="Validador"><polygon fill="#181818" points="513.2842,137.5625,523.2842,141.5625,513.2842,145.5625,517.2842,141.5625" style="stroke:#181818;stroke-width:1;"/><line style="stroke:#181818;stroke-width:1;" x1="323.4482" x2="519.2842" y1="141.5625" y2="141.5625"/><text fill="#000000" font-family="sans-serif" font-size="13" lengthAdjust="spacing" textLength="177.8359" x="330.4482" y="136.4966">validarDatos(datosUsuario)</text></g><g class="message" data-participant-1="Validador" data-participant-2="GC"><polygon fill="#181818" points="334.4482,166.6953,324.4482,170.6953,334.4482,174.6953,330.4482,170.6953" style="stroke:#181818;stroke-width:1;"/><line style="stroke:#181818;stroke-width:1;stroke-dasharray:2,2;" x1="328.4482" x2="524.2842" y1="170.6953" y2="170.6953"/><text fill="#000000" font-family="sans-serif" font-size="13" lengthAdjust="spacing" textLength="128.4893" x="340.4482" y="165.6294">resultadoValidaci&#243;n</text></g><path d="M10,185.6953 L74.4429,185.6953 L74.4429,192.8281 L64.4429,202.8281 L10,202.8281 L10,185.6953" fill="#EEEEEE" style="stroke:#000000;stroke-width:1.5;"/><rect fill="none" height="428.6016" style="stroke:#000000;stroke-width:1.5;" width="811.2754" x="10" y="185.6953"/><text fill="#000000" font-family="sans-serif" font-size="13" font-weight="bold" lengthAdjust="spacing" textLength="19.4429" x="25" y="198.7622">alt</text><text fill="#000000" font-family="sans-serif" font-size="11" font-weight="bold" lengthAdjust="spacing" textLength="105.8374" x="89.4429" y="197.9058">[Datos Inv&#225;lidos]</text><g class="message" data-participant-1="GC" data-participant-2="Usuario"><polygon fill="#181818" points="70.6021,219.9609,60.6021,223.9609,70.6021,227.9609,66.6021,223.9609" style="stroke:#181818;stroke-width:1;"/><line style="stroke:#181818;stroke-width:1;stroke-dasharray:2,2;" x1="64.6021" x2="322.4482" y1="223.9609" y2="223.9609"/><text fill="#000000" font-family="sans-serif" font-size="13" lengthAdjust="spacing" textLength="153.7021" x="76.6021" y="218.895">ERROR: Datos inv&#225;lidos</text></g><line style="stroke:#000000;stroke-width:1;stroke-dasharray:2,2;" x1="10" x2="821.2754" y1="232.9609" y2="232.9609"/><text fill="#000000" font-family="sans-serif" font-size="11" font-weight="bold" lengthAdjust="spacing" textLength="95.2563" x="15" y="243.1714">[Datos V&#225;lidos]</text><g class="message" data-participant-1="GC" data-participant-2="Agenda"><polygon fill="#181818" points="597.2969,263.8984,607.2969,267.8984,597.2969,271.8984,601.2969,267.8984" style="stroke:#181818;stroke-width:1;"/><line style="stroke:#181818;stroke-width:1;" x1="323.4482" x2="603.2969" y1="267.8984" y2="267.8984"/><text fill="#000000" font-family="sans-serif" font-size="13" lengthAdjust="spacing" textLength="201.8618" x="330.4482" y="262.8325">verificarDisponibilidad(horario)</text></g><g class="message" data-participant-1="Agenda" data-participant-2="GC"><polygon fill="#181818" points="334.4482,293.0313,324.4482,297.0313,334.4482,301.0313,330.4482,297.0313" style="stroke:#181818;stroke-width:1;"/><line style="stroke:#181818;stroke-width:1;stroke-dasharray:2,2;" x1="328.4482" x2="608.2969" y1="297.0313" y2="297.0313"/><text fill="#000000" font-family="sans-serif" font-size="13" lengthAdjust="spacing" textLength="142.8159" x="340.4482" y="291.9653">disponible (true/false)</text></g><path d="M20,312.0313 L84.4429,312.0313 L84.4429,319.1641 L74.4429,329.1641 L20,329.1641 L20,312.0313" fill="#EEEEEE" style="stroke:#000000;stroke-width:1.5;"/><rect fill="none" height="295.2656" style="stroke:#000000;stroke-width:1.5;" width="791.2754" x="20" y="312.0313"/><text fill="#000000" font-family="sans-serif" font-size="13" font-weight="bold" lengthAdjust="spacing" textLength="19.4429" x="35" y="325.0981">alt</text><text fill="#000000" font-family="sans-serif" font-size="11" font-weight="bold" lengthAdjust="spacing" textLength="114.6782" x="99.4429" y="324.2417">[Horario Ocupado]</text><g class="message" data-participant-1="GC" data-participant-2="Usuario"><polygon fill="#181818" points="70.6021,346.2969,60.6021,350.2969,70.6021,354.2969,66.6021,350.2969" style="stroke:#181818;stroke-width:1;"/><line style="stroke:#181818;stroke-width:1;stroke-dasharray:2,2;" x1="64.6021" x2="322.4482" y1="350.2969" y2="350.2969"/><text fill="#000000" font-family="sans-serif" font-size="13" lengthAdjust="spacing" textLength="193.0195" x="76.6021" y="345.231">ERROR: Horario no disponible</text></g><line style="stroke:#000000;stroke-width:1;stroke-dasharray:2,2;" x1="20" x2="811.2754" y1="359.2969" y2="359.2969"/><text fill="#000000" font-family="sans-serif" font-size="11" font-weight="bold" lengthAdjust="spacing" textLength="125.834" x="25" y="369.5073">[Horario Disponible]</text><g class="message" data-participant-1="GC" data-participant-2="Cita"><polygon fill="#181818" points="656.8716,390.2344,666.8716,394.2344,656.8716,398.2344,660.8716,394.2344" style="stroke:#181818;stroke-width:1;"/><line style="stroke:#181818;stroke-width:1;" x1="323.4482" x2="662.8716" y1="394.2344" y2="394.2344"/><text fill="#000000" font-family="sans-serif" font-size="13" lengthAdjust="spacing" textLength="169.7046" x="330.4482" y="389.1685">new Cita(usuario, horario)</text></g><g class="message" data-participant-1="Cita" data-participant-2="GC"><polygon fill="#181818" points="334.4482,434.5,324.4482,438.5,334.4482,442.5,330.4482,438.5" style="stroke:#181818;stroke-width:1;"/><line style="stroke:#181818;stroke-width:1;stroke-dasharray:2,2;" x1="328.4482" x2="672.8716" y1="438.5" y2="438.5"/><text fill="#000000" font-family="sans-serif" font-size="13" lengthAdjust="spacing" textLength="114.6958" x="340.4482" y="418.3013">nuevaCita creada</text><text fill="#000000" font-family="sans-serif" font-size="13" lengthAdjust="spacing" textLength="165.3628" x="340.4482" y="433.4341">(c&#243;digoAcceso generado)</text></g><g class="message" data-participant-1="GC" data-participant-2="Agenda"><polygon fill="#181818" points="597.2969,463.6328,607.2969,467.6328,597.2969,471.6328,601.2969,467.6328" style="stroke:#181818;stroke-width:1;"/><line style="stroke:#181818;stroke-width:1;" x1="323.4482" x2="603.2969" y1="467.6328" y2="467.6328"/><text fill="#000000" font-family="sans-serif" font-size="13" lengthAdjust="spacing" textLength="161.0337" x="330.4482" y="462.5669">marcarOcupado(horario)</text></g><g class="message" data-participant-1="Agenda" data-participant-2="GC"><polygon fill="#181818" points="334.4482,492.7656,324.4482,496.7656,334.4482,500.7656,330.4482,496.7656" style="stroke:#181818;stroke-width:1;"/><line style="stroke:#181818;stroke-width:1;stroke-dasharray:2,2;" x1="328.4482" x2="608.2969" y1="496.7656" y2="496.7656"/><text fill="#000000" font-family="sans-serif" font-size="13" lengthAdjust="spacing" textLength="84.4556" x="340.4482" y="491.6997">confirmaci&#243;n</text></g><g class="message" data-participant-1="GC" data-participant-2="Notificacion"><polygon fill="#181818" points="736.0068,521.8984,746.0068,525.8984,736.0068,529.8984,740.0068,525.8984" style="stroke:#181818;stroke-width:1;"/><line style="stroke:#181818;stroke-width:1;" x1="323.4482" x2="742.0068" y1="525.8984" y2="525.8984"/><text fill="#000000" font-family="sans-serif" font-size="13" lengthAdjust="spacing" textLength="217.5977" x="330.4482" y="520.8325">enviarConfirmacion(usuario, cita)</text></g><g class="message" data-participant-1="Notificacion" data-participant-2="GC"><polygon fill="#181818" points="334.4482,551.0313,324.4482,555.0313,334.4482,559.0313,330.4482,555.0313" style="stroke:#181818;stroke-width:1;"/><line style="stroke:#181818;stroke-width:1;stroke-dasharray:2,2;" x1="328.4482" x2="752.0068" y1="555.0313" y2="555.0313"/><text fill="#000000" font-family="sans-serif" font-size="13" lengthAdjust="spacing" textLength="131.0156" x="340.4482" y="549.9653">notificaci&#243;n enviada</text></g><g class="message" data-participant-1="GC" data-participant-2="Usuario"><polygon fill="#181818" points="70.6021,595.2969,60.6021,599.2969,70.6021,603.2969,66.6021,599.2969" style="stroke:#181818;stroke-width:1;"/><line style="stroke:#181818;stroke-width:1;stroke-dasharray:2,2;" x1="64.6021" x2="322.4482" y1="599.2969" y2="599.2969"/><text fill="#000000" font-family="sans-serif" font-size="13" lengthAdjust="spacing" textLength="122.1987" x="76.6021" y="579.0981">&#201;XITO: Cita creada</text><text fill="#000000" font-family="sans-serif" font-size="13" lengthAdjust="spacing" textLength="152.8389" x="76.6021" y="594.231">C&#243;digo: [c&#243;digoAcceso]</text></g><!--SRC=[VLF1Rjim3BtxAuYUN615xpuKA9mXxMK1ihKOiEt0IKn7m9K2INQ_OP-nR-WdvCT6oR8TfMaDn538nyV79nfLi0uUV8-ERRL75rZn7as0YpLvoQsevO3-0j33kYqGZzYnHcrT4Rrz8gEnf8eKYI4UYjGN6tZ72XLRKrLP1rpTIAy6b2DqNsqduD3hMcEmFaC-mH_huk6ogjPjB9ZLD32aerj5V55rMSqekCfD7Fc-2n8QKueFhw84km2f7kxDSFWd6Uiha2SsayfCsC3dxNQpRJAM5onrddBqyRJ-9fiaIicbyTsA_TuQ_ir9NZqF5qj6y2nOPsX7K0VNq_KEfTS8JQ-e_MuaW8tgzp9RYdyWVu8RUqIVYj8SKtfLvfPvuhqsOEWbdUh-pILDS5I11mmqRi8KZN_c-KnF0wP8l7-DFqsj3g-Qd-ojKkGjY1taPAY5LTDvtXELa-lFwCJoR4tzHkE9tygQ7Rldl1dlK1_lSGDa1aRNpeNMB9R8BkCPFueFOSeU1nT_vg3e6LjfF6V5MSftD-7mz_lzjqq3XVFjQ7m3Fueh-3MkXj6L_Fu3]--></g></svg>